<svg xmlns="http://www.w3.org/2000/svg" version="1.1" xmlns:xlink="http://www.w3.org/1999/xlink" xmlns:svgjs="http://svgjs.dev/svgjs" width="2000" height="1247" viewBox="0 0 2000 1247"><g transform="matrix(1,0,0,1,-1.2121212121212466,0.504858299595071)"><svg viewBox="0 0 396 247" data-background-color="#ffffff" preserveAspectRatio="xMidYMid meet" height="1247" width="2000" xmlns="http://www.w3.org/2000/svg" xmlns:xlink="http://www.w3.org/1999/xlink"><g id="tight-bounds" transform="matrix(1,0,0,1,0.2400000000000091,-0.09999999999999432)"><svg viewBox="0 0 395.52 247.2" height="247.2" width="395.52"><g><svg></svg></g><g><svg viewBox="0 0 395.52 247.2" height="247.2" width="395.52"><g transform="matrix(1,0,0,1,143.79531194539248,47.215199999999996)"><svg viewBox="0 0 107.92937610921501 152.7696" height="152.7696" width="107.92937610921501"><g><svg viewBox="0 0 107.92937610921501 152.7696" height="152.7696" width="107.92937610921501"><g><svg viewBox="0 0 107.92937610921501 152.7696" height="152.7696" width="107.92937610921501"><g><svg viewBox="0 0 107.92937610921501 152.7696" height="152.7696" width="107.92937610921501"><g id="textblocktransform"><svg viewBox="0 0 107.92937610921501 152.7696" height="152.7696" width="107.92937610921501" id="textblock"><g><svg viewBox="0 0 107.92937610921501 152.7696" height="152.7696" width="107.92937610921501"><g transform="matrix(1,0,0,1,0,0)"><svg width="107.92937610921501" viewBox="5.32 -35.77 25.27 35.77" height="152.7696" data-palette-color="#ff0033"><path d="M16.67-14.26L10.11-14.26 10.11 0 5.32 0 5.32-35.77 15.43-35.77Q18.07-35.77 20.26-35.03 22.46-34.3 24.02-33.02 25.59-31.74 26.45-30 27.32-28.27 27.32-26.27L27.32-26.27Q27.32-24.51 26.68-22.99 26.05-21.46 25.02-20.18 24-18.9 22.69-17.87 21.39-16.85 20.07-16.09L20.07-16.09 30.59 0 24.85 0 16.67-14.26ZM10.11-31.98L10.11-18.04 18.04-18.04Q19.07-18.6 19.89-19.41 20.7-20.21 21.26-21.18 21.83-22.14 22.13-23.22 22.44-24.29 22.44-25.42L22.44-25.42Q22.44-26.81 21.95-28.02 21.46-29.22 20.47-30.1 19.48-30.98 17.99-31.48 16.5-31.98 14.5-31.98L14.5-31.98 10.11-31.98Z" opacity="1" transform="matrix(1,0,0,1,0,0)" fill="#ff0033" class="wordmark-text-0" data-fill-palette-color="primary" id="text-0"></path></svg></g></svg></g></svg></g></svg></g></svg></g></svg></g></svg></g><path d="M326.097 41.215L326.097 0 78.897 0 78.897 247.2 326.097 247.2 326.097 205.985 312.32 205.985 312.32 233.423 92.674 233.423 92.674 13.777 312.32 13.777 312.32 41.215Z" fill="#ff0033" stroke="transparent" data-fill-palette-color="primary"></path></svg></g><defs></defs></svg><rect width="395.52" height="247.2" fill="none" stroke="none" visibility="hidden"></rect></g></svg></g></svg>