<svg xmlns="http://www.w3.org/2000/svg" version="1.1" xmlns:xlink="http://www.w3.org/1999/xlink" xmlns:svgjs="http://svgjs.dev/svgjs" width="1000" height="623" viewBox="0 0 1000 623"><g transform="matrix(1,0,0,1,-0.6060606060606233,0.2522267206477409)"><svg viewBox="0 0 396 247" data-background-color="#ffffff" preserveAspectRatio="xMidYMid meet" height="623" width="1000" xmlns="http://www.w3.org/2000/svg" xmlns:xlink="http://www.w3.org/1999/xlink"><g id="tight-bounds" transform="matrix(1,0,0,1,0.2400000000000091,-0.09999999999999432)"><svg viewBox="0 0 395.52 247.2" height="247.2" width="395.52"><g><svg></svg></g><g><svg viewBox="0 0 395.52 247.2" height="247.2" width="395.52"><g transform="matrix(1,0,0,1,144.54562554426707,47.215199999999996)"><svg viewBox="0 0 106.42874891146587 152.7696" height="152.7696" width="106.42874891146587"><g><svg viewBox="0 0 106.42874891146587 152.7696" height="152.7696" width="106.42874891146587"><g><svg viewBox="0 0 106.42874891146587 152.7696" height="152.7696" width="106.42874891146587"><g><svg viewBox="0 0 106.42874891146587 152.7696" height="152.7696" width="106.42874891146587"><g id="textblocktransform"><svg viewBox="0 0 106.42874891146587 152.7696" height="152.7696" width="106.42874891146587" id="textblock"><g><svg viewBox="0 0 106.42874891146587 152.7696" height="152.7696" width="106.42874891146587"><g transform="matrix(1,0,0,1,0,0)"><svg width="106.42874891146587" viewBox="5 -34.45 24 34.45" height="152.7696" data-palette-color="#ff0000"><path d="M23.35 0L15.1-14.6 9.75-14.6 9.75 0 5 0 5-34.45 14.05-34.45Q20.5-34.45 23.83-32 27.15-29.55 27.15-24.7L27.15-24.7Q27.15-21.1 25.3-18.85 23.45-16.6 19.7-15.45L19.7-15.45 29 0 23.35 0ZM9.75-18.25L14.55-18.25Q18.3-18.25 20.2-19.78 22.1-21.3 22.1-24.7L22.1-24.7Q22.1-27.9 20.18-29.33 18.25-30.75 14-30.75L14-30.75 9.75-30.75 9.75-18.25Z" opacity="1" transform="matrix(1,0,0,1,0,0)" fill="#ff0000" class="wordmark-text-0" data-fill-palette-color="primary" id="text-0"></path></svg></g></svg></g></svg></g></svg></g></svg></g></svg></g></svg></g><path d="M68.673 41.215L68.673 0 315.873 0 315.873 247.2 68.673 247.2 68.673 205.985 82.45 205.985 82.45 233.423 302.096 233.423 302.096 13.777 82.45 13.777 82.45 41.215Z" fill="#ff0000" stroke="transparent" data-fill-palette-color="primary"></path></svg></g><defs></defs></svg><rect width="395.52" height="247.2" fill="none" stroke="none" visibility="hidden"></rect></g></svg></g></svg>